# xmcd CD database file
#
# Track frame offsets:
#	151
#	4708
#	27231
#	46388
#	86853
#	112030
#	136785
#	158154
#	174887
#	195090
#	213119
#
# Disc length: 3270 seconds
#
# Revision: 0
# Processed by: cddbd v1.5PL3 Copyright (c) Steve Scherf et al.
# Submitted via: CDex 1.51
#
DISCID=7f0cc40b
DTITLE=Mino Cinelu - MINO CINELU
DYEAR=1999
DGENRE=Jazz
TTITLE0=Chouval Boa
TTITLE1=Moun Madinina
TTITLE2=Confians
TTITLE3=Shibumi Dunes
TTITLE4=See Yea - Salee Yea
TTITLE5=Oncoming Horizons
TTITLE6=Namonale
TTITLE7=Will O'The Wisp
TTITLE8=Soon I Will Be Home
TTITLE9=Petit Prince
TTITLE10=Why Not
EXTD=YEAR: 1999
EXTT0=
EXTT1=
EXTT2=
EXTT3=
EXTT4=
EXTT5=
EXTT6=
EXTT7=
EXTT8=
EXTT9=
EXTT10=
PLAYORDER=
